# AST/ASF file generated using VICON BodyLanguage
# -----------------------------------------------
:version 1.10
:name VICON
:units
  mass 1.0
  length 0.45
  angle deg
:documentation
   .ast/.asf automatically generated from VICON data using
   VICON BodyBuilder and BodyLanguage model FoxedUp or BRILLIANT.MOD
:root
   order TX TY TZ RX RY RZ
   axis XYZ
   position 0 0 0  
   orientation 0 0 0 
:bonedata
  begin
     id 1 
     name lhipjoint
     direction 0.537252 -0.787203 0.302774 
     length 2.29576 
     axis 0 0 0  XYZ
  end
  begin
     id 2 
     name lfemur
     direction 0.34202 -0.939693 0  
     length 7.31114  
     axis 0 0 20  XYZ
    dof rx ry rz
    limits (-160.0 20.0)
           (-70.0 70.0)
           (-60.0 70.0)
  end
  begin
     id 3 
     name ltibia
     direction 0.34202 -0.939693 0   
     length 8.36008   
     axis 0 0 20   XYZ
    dof rx
    limits (-10.0 170.0)
  end
  begin
     id 4 
     name lfoot
     direction 0.0969116 -0.266263 0.959016   
     length 2.16704   
     axis -90 7.62852e-016 20   XYZ
    dof rx rz
    limits (-45.0 90.0)
           (-70.0 20.0)
  end
  begin
     id 5 
     name ltoes
     direction 1.53563e-011 -4.21779e-011 1   
     length 1.08338   
     axis -90 7.62852e-016 20   XYZ
    dof rx
    limits (-90.0 20.0)
  end
  begin
     id 6 
     name rhipjoint
     direction -0.588228 -0.754791 0.290308   
     length 2.39434  
     axis 0 0 0  XYZ 
  end
  begin
     id 7 
     name rfemur
     direction -0.34202 -0.939693 0   
     length 7.45207   
     axis 0 0 -20   XYZ
    dof rx ry rz
    limits (-160.0 20.0)
           (-70.0 70.0)
           (-70.0 60.0)
  end
  begin
     id 8 
     name rtibia
     direction -0.34202 -0.939693 0   
     length 8.03565   
     axis 0 0 -20   XYZ
    dof rx
    limits (-10.0 170.0)
 end
 begin
     id 9 
     name rfoot
     direction -0.107009 -0.294004 0.949795   
     length 2.11509  
     axis -90 -7.62852e-016 -20   XYZ
    dof rx rz
    limits (-45.0 90.0)
           (-20.0 70.0)
  end
  begin
     id 10 
     name rtoes
     direction -1.53533e-011 -4.22004e-011 1   
     length 1.05493   
     axis -90 -7.62852e-016 -20   XYZ
    dof rx
    limits (-90.0 20.0)
  end
  begin
     id 11 
     name lowerback
     direction -0.0115208 0.997969 -0.0626515   
     length 2.03153   
     axis 0 0 0   XYZ
    dof rx ry rz
    limits (-20.0 45.0)
           (-30.0 30.0)
           (-30.0 30.0)
  end
  begin
     id 12 
     name upperback
     direction -0.00423475 0.999974 -0.00583614   
     length 2.03619   
     axis 0 0 0   XYZ
    dof rx ry rz
    limits (-20.0 45.0)
           (-30.0 30.0)
           (-30.0 30.0)
  end
  begin
     id 13 
     name thorax
     direction 0.00289429 0.999728 0.0231573   
     length 2.03921   
     axis 0 0 0   XYZ
    dof rx ry rz
    limits (-20.0 45.0)
           (-30.0 30.0)
           (-30.0 30.0)
  end
  begin
     id 14 
     name lowerneck
     direction 0.0188995 0.987777 0.154721   
     length 1.78836   
     axis 0 0 0   XYZ
    dof rx ry rz
    limits (-20.0 45.0)
           (-30.0 30.0)
           (-30.0 30.0)
  end
  begin
     id 15 
     name upperneck
     direction -0.00612612 0.992995 -0.118   
     length 1.81789   
     axis 0 0 0   XYZ
    dof rx ry rz
    limits (-20.0 45.0)
           (-30.0 30.0)
           (-30.0 30.0)
  end
  begin
     id 16
     name head
     direction -0.00420226 0.998397 -0.0564482  
     length 1.82234  
     axis 0 0 0   XYZ
    dof rx ry rz
    limits (-20.0 45.0)
           (-30.0 30.0)
           (-30.0 30.0)
  end
  begin
     id 17 
     name lclavicle
     direction 0.916488 0.396539 0.0529676  
     length 3.51732  
     axis 0 0 0   XYZ
    dof ry rz
    limits (-20.0 10.0)
           (0.0 20.0)
  end
  begin
     id 18 
     name lhumerus
     direction 1 -4.4896e-011 8.36962e-028   
     length 5.45077   
     axis 180 -30 -90   XYZ
    dof rx ry rz
    limits (-60.0 90.0)
           (-90.0 90.0)
           (-90.0 90.0)
  end
  begin
     id 19
     name lradius
     direction 1 -4.48962e-011 3.01407e-027   
     length 3.05488   
     axis 180 -30 -90   XYZ
    dof rx
    limits (-10.0 170.0)
  end
  begin
     id 20
     name lwrist
     direction 1 -4.49002e-011 4.72961e-027   
     length 1.52744   
     axis -2.72261e-015 90 90   XYZ
    dof ry
    limits (-180.0 0.0)
 end
  begin
     id 21 
     name lhand
     direction 1 -4.4899e-011 9.45681e-027   
     length 0.638818   
     axis -6.0311e-015 90 90   XYZ
    dof rx rz
    limits (-90.0 90.0)
           (-45.0 45.0)
  end
  begin
     id 22 
     name lfingers
     direction 1 -4.48871e-011 1.88632e-026   
     length 0.515032   
     axis -1.20625e-014 90 90   XYZ
    dof rx
    limits (0.0 90.0)
  end
  begin
     id 23
     name lthumb
     direction 0.707107 -6.34964e-011 0.707107   
     length 0.739485   
     axis -90 45 6.32835e-014   XYZ
    dof rx rz
    limits (-45.0 45.0)
           (-45.0 45.0)
  end
  begin
     id 24 
     name rclavicle
     direction -0.949427 0.303202 0.0815894   
     length 3.76167  
     axis 0 0 0   XYZ 
    dof ry rz
    limits (-10.0 20.0)
           (-20.0 0.0)
  end
  begin
     id 25 
     name rhumerus
     direction -1 -4.48971e-011 -6.43969e-018  
     length 4.88702   
     axis 180 30 90   XYZ
    dof rx ry rz
    limits (-90.0 60.0)
           (-90.0 90.0)
           (-90.0 90.0)
  end
  begin
     id 26 
     name rradius
     direction -1 -4.48987e-011 5.46662e-027   
     length 3.22603   
     axis 180 30 90   XYZ
    dof rx
    limits (-10.0 170.0)
  end
  begin
     id 27 
     name rwrist
     direction -1 -4.48956e-011 4.72476e-027   
     length 1.61302   
     axis -2.72261e-015 -90 -90   XYZ
    dof ry
    limits (-180.0 0.0)
  end
  begin
     id 28
     name rhand
     direction -1 -4.4889e-011 9.43571e-027   
     length 0.716293   
     axis -6.0311e-015 -90 -90   XYZ
    dof rx rz
    limits (-90.0 90.0)
           (-45.0 45.0)
  end
  begin
     id 29
     name rfingers
     direction -1 -4.48887e-011 1.88701e-026   
     length 0.577494   
     axis -1.20625e-014 -90 -90   XYZ
    dof rx
    limits (0.0 90.0)
  end
  begin
     id 30
     name rthumb
     direction -0.707107 -6.34825e-011 0.707107   
     length 0.829169   
     axis -90 -45 -6.32835e-014   XYZ
    dof rx rz
    limits (-45.0 45.0)
           (-45.0 45.0)
  end
:hierarchy
  begin
    root lhipjoint rhipjoint lowerback
    lhipjoint lfemur
    lfemur ltibia
    ltibia lfoot
    lfoot ltoes
    rhipjoint rfemur
    rfemur rtibia
    rtibia rfoot
    rfoot rtoes
    lowerback upperback
    upperback thorax
    thorax lowerneck lclavicle rclavicle
    lowerneck upperneck
    upperneck head
    lclavicle lhumerus
    lhumerus lradius
    lradius lwrist
    lwrist lhand lthumb
    lhand lfingers
    rclavicle rhumerus
    rhumerus rradius
    rradius rwrist
    rwrist rhand rthumb
    rhand rfingers
  end

#!OML:ASF F:\VICON\USERDATA\INSTALL\rory3\rory3.ASF
:FULLY-SPECIFIED
:DEGREES
2477
root 1.68935 18.5106 0.242788 -346.359 57.0509 -358.993
lowerback -11.1376 -2.66756 -2.78396
upperback -4.77517 -3.07791 -2.05493
thorax 1.28799 -1.46821 -0.935316
lowerneck -15.2491 -10.8949 -4.10591
upperneck 11.0491 -14.7822 6.17597
head 6.61104 -6.82161 1.05262
rclavicle 3.67752e-015 1.35174e-014
rhumerus 41.9178 -34.3552 -44.0515
rradius 104.999
rwrist 123.404
rhand -34.9284 -7.84698
rfingers 7.12502
rthumb -8.07563 -37.6727
lclavicle 3.67752e-015 1.35174e-014
lhumerus -57.5123 -22.037 95.9367
lradius 42.878
lwrist 26.1702
lhand -12.0657 26.8531
lfingers 7.12502
lthumb 13.9937 56.3621
rfemur -14.5607 24.1637 8.68478
rtibia 2.64384e-014
rfoot -0.400425 4.97301
rtoes 7.35801
lfemur -10.9228 14.8413 -24.4014
ltibia 15.2886
lfoot -18.6252 19.1198
ltoes -21.3858
2478
root 1.68865 18.5101 0.243795 -346.574 57.0849 -359.238
lowerback -11.1418 -2.68198 -2.62981
upperback -4.8026 -3.11465 -2.00918
thorax 1.25661 -1.48778 -0.977847
lowerneck -15.1053 -10.8679 -4.14129
upperneck 11.0499 -14.7403 6.15918
head 6.5867 -6.80856 1.06497
rclavicle -2.61402e-014 -1.82882e-014
rhumerus 42.0569 -34.4194 -44.178
rradius 105.082
rwrist 123.362
rhand -34.7213 -7.87373
rfingers 7.12502
rthumb -7.87575 -37.707
lclavicle -2.61402e-014 -1.82882e-014
lhumerus -57.6375 -21.9265 95.875
lradius 42.9376
lwrist 26.1178
lhand -11.9827 26.9357
lfingers 7.12502
lthumb 14.0737 56.4392
rfemur -14.5446 24.1698 8.84871
rtibia -2.00773e-014
rfoot -0.394805 5.01095
rtoes 7.38406
lfemur -10.9539 14.7807 -24.2409
ltibia 15.357
lfoot -18.663 19.1932
ltoes -21.1824
2479
root 1.68813 18.5101 0.244697 -346.621 57.0753 -359.261
lowerback -11.1149 -2.74986 -2.63786
upperback -4.8387 -3.20784 -1.93021
thorax 1.20973 -1.53311 -0.900687
lowerneck -14.923 -10.8208 -4.30117
upperneck 11.0148 -14.6507 6.18485
head 6.5546 -6.77618 1.11655
rclavicle 7.14631e-014 2.46493e-014
rhumerus 42.2967 -34.2718 -44.3484
rradius 105.204
rwrist 123.357
rhand -34.4183 -8.27664
rfingers 7.12502
rthumb -7.58328 -38.1207
lclavicle 7.14631e-014 2.46493e-014
lhumerus -57.7292 -21.5957 95.7854
lradius 42.9806
lwrist 26.0538
lhand -11.8792 26.9641
lfingers 7.12502
lthumb 14.1734 56.4606
rfemur -14.5199 24.1887 8.87595
rtibia -5.1684e-015
rfoot -0.380382 5.00904
rtoes 7.65147
lfemur -10.9574 14.8597 -24.2234
ltibia 15.4057
lfoot -18.5624 19.1756
ltoes -21.484
2480
root 1.68463 18.5102 0.245221 -346.614 57.0156 -359.236
lowerback -11.0844 -2.75761 -2.67775
upperback -4.84179 -3.21617 -1.91512
thorax 1.19294 -1.53667 -0.862271
lowerneck -14.8563 -10.8081 -4.32207
upperneck 10.9696 -14.6274 6.18109
head 6.52904 -6.76928 1.12586
rclavicle 1.18277e-014 5.56597e-015
rhumerus 42.3743 -34.2488 -44.413
rradius 105.315
rwrist 123.169
rhand -34.5207 -8.44742
rfingers 7.12502
rthumb -7.68214 -38.2879
lclavicle 1.18277e-014 5.56597e-015
lhumerus -57.7651 -21.4939 95.6992
lradius 43.0592
lwrist 25.9961
lhand -11.954 27.0675
lfingers 7.12502
lthumb 14.1013 56.5691
rfemur -14.5362 24.2464 8.85335
rtibia 1.37161e-014
rfoot -0.375974 4.93935
rtoes 7.44962
lfemur -10.9214 14.7691 -24.2312
ltibia 15.3894
lfoot -18.6773 19.2637
ltoes -21.2068
2481
root 1.68362 18.5111 0.246815 -346.667 57.0433 -359.271
lowerback -11.0854 -2.84413 -2.69547
upperback -4.87102 -3.33177 -1.82499
thorax 1.17005 -1.59305 -0.772429
lowerneck -14.6683 -10.7459 -4.46119
upperneck 10.9311 -14.5166 6.1712
head 6.48923 -6.72895 1.1665
rclavicle -2.127e-014 -9.54166e-015
rhumerus 42.5404 -34.0512 -44.5043
rradius 105.427
rwrist 123.051
rhand -34.679 -8.49558
rfingers 7.12502
rthumb -7.83498 -38.3304
lclavicle -2.127e-014 -9.54166e-015
lhumerus -57.8035 -21.187 95.5989
lradius 43.0955
lwrist 25.9144
lhand -11.9511 27.1175
lfingers 7.12502
lthumb 14.1041 56.6188
rfemur -14.4901 24.2316 8.90132
rtibia -1.39149e-014
rfoot -0.372584 4.89694
rtoes 7.40581
lfemur -10.8804 14.742 -24.1899
ltibia 15.3696
lfoot -18.7081 19.2687
ltoes -21.3278
2482
root 1.68487 18.5103 0.248088 -346.485 57.0435 -359.017
lowerback -11.0992 -2.93955 -2.85065
upperback -4.88517 -3.4429 -1.77287
thorax 1.17554 -1.6458 -0.645996
lowerneck -14.5109 -10.7039 -4.68634
upperneck 10.8924 -14.4251 6.2238
head 6.4665 -6.69528 1.23447
rclavicle 3.08116e-015 3.97569e-015
rhumerus 42.8425 -33.9125 -44.7371
rradius 105.504
rwrist 123.269
rhand -34.6477 -8.74418
rfingers 7.12502
rthumb -7.8047 -38.5801
lclavicle 3.08116e-015 3.97569e-015
lhumerus -57.8386 -20.9068 95.589
lradius 43.1076
lwrist 25.8945
lhand -12.045 27.066
lfingers 7.12502
lthumb 14.0136 56.5736
rfemur -14.4369 24.2019 8.76865
rtibia -1.8487e-014
rfoot -0.390345 4.91595
rtoes 7.57044
lfemur -10.8265 14.8115 -24.3343
ltibia 15.3575
lfoot -18.7137 19.2029
ltoes -21.4519
2483
root 1.67952 18.5111 0.248115 -346.452 57.0203 -358.958
lowerback -11.049 -2.94765 -2.9121
upperback -4.88214 -3.45015 -1.76833
thorax 1.15525 -1.64863 -0.605476
lowerneck -14.4997 -10.7005 -4.64549
upperneck 10.8672 -14.418 6.16501
head 6.44846 -6.69605 1.21286
rclavicle 2.38542e-015 1.66979e-014
rhumerus 42.9455 -33.9596 -44.8902
rradius 105.578
rwrist 123.474
rhand -34.2738 -9.04175
rfingers 7.12502
rthumb -7.4439 -38.8908
lclavicle 2.38542e-015 1.66979e-014
lhumerus -57.8444 -20.8779 95.5176
lradius 43.2042
lwrist 25.9256
lhand -12.0363 27.1041
lfingers 7.12502
lthumb 14.022 56.6112
rfemur -14.4508 24.2207 8.74091
rtibia -6.16232e-015
rfoot -0.394864 4.9568
rtoes 7.6582
lfemur -10.8123 14.7583 -24.3541
ltibia 15.3417
lfoot -18.7458 19.2328
ltoes -21.3342
2484
root 1.67291 18.5118 0.249207 -346.425 56.9549 -358.957
lowerback -11.0276 -2.93762 -2.96623
upperback -4.89098 -3.43273 -1.76416
thorax 1.13747 -1.63898 -0.567545
lowerneck -14.509 -10.6859 -4.57438
upperneck 10.8653 -14.4018 6.10015
head 6.43815 -6.69055 1.18451
rclavicle -3.96575e-014 5.56597e-015
rhumerus 42.8884 -33.9623 -44.9235
rradius 105.706
rwrist 123.635
rhand -34.0424 -9.30751
rfingers 7.12502
rthumb -7.22053 -39.1643
lclavicle -3.96575e-014 5.56597e-015
lhumerus -57.8383 -20.878 95.4095
lradius 43.3143
lwrist 25.8611
lhand -11.7413 27.1951
lfingers 7.12502
lthumb 14.3063 56.6822
rfemur -14.5251 24.2794 8.71337
rtibia 2.22639e-014
rfoot -0.357381 4.95704
rtoes 7.73606
lfemur -10.845 14.8058 -24.3636
ltibia 15.3032
lfoot -18.7159 19.2197
ltoes -21.2837
2485
root 1.67171 18.5109 0.25232 -346.385 56.8937 -358.869
lowerback -11.0512 -2.95277 -3.03988
upperback -4.84169 -3.44369 -1.76892
thorax 1.20558 -1.64479 -0.535573
lowerneck -14.6119 -10.6719 -4.538
upperneck 10.9031 -14.3804 6.04528
head 6.45911 -6.67957 1.15889
rclavicle -1.73937e-014 7.95139e-016
rhumerus 42.9557 -33.9846 -45.1694
rradius 105.888
rwrist 123.912
rhand -34.3145 -9.17992
rfingers 7.12502
rthumb -7.48319 -39.0276
lclavicle -1.73937e-014 7.95139e-016
lhumerus -57.7539 -20.8461 95.3202
lradius 43.3415
lwrist 25.8746
lhand -11.6875 27.2198
lfingers 7.12502
lthumb 14.3581 56.7033
rfemur -14.4994 24.3339 8.66526
rtibia 8.15017e-015
rfoot -0.361975 4.94123
rtoes 7.72439
lfemur -10.813 14.9505 -24.4121
ltibia 15.3095
lfoot -18.6957 19.1378
ltoes -21.4277
2486
root 1.67076 18.51 0.252783 -346.44 56.8397 -358.903
lowerback -11.0463 -2.97187 -3.03442
upperback -4.79509 -3.47118 -1.72934
thorax 1.25401 -1.65973 -0.502291
lowerneck -14.7675 -10.649 -4.57647
upperneck 10.9305 -14.3374 6.04636
head 6.49426 -6.65546 1.16114
rclavicle -7.524e-014 -2.78299e-014
rhumerus 43.0747 -33.9535 -45.4017
rradius 106.023
rwrist 124.038
rhand -34.2624 -8.92867
rfingers 7.12502
rthumb -7.43287 -38.7781
lclavicle -7.524e-014 -2.78299e-014
lhumerus -57.662 -20.7943 95.305
lradius 43.3677
lwrist 25.9055
lhand -11.822 27.1534
lfingers 7.12502
lthumb 14.2285 56.646
rfemur -14.4794 24.3939 8.67378
rtibia 1.98785e-014
rfoot -0.35629 4.9198
rtoes 7.7145
lfemur -10.7769 15.0187 -24.3947
ltibia 15.3006
lfoot -18.6452 19.141
ltoes -21.4261
2487
root 1.6668 18.5106 0.252647 -346.536 56.8257 -359.063
lowerback -11.0902 -2.98033 -2.98127
upperback -4.77641 -3.48759 -1.66774
thorax 1.29844 -1.66891 -0.47312
lowerneck -14.8372 -10.6407 -4.58897
upperneck 10.9108 -14.3134 6.0105
head 6.49617 -6.64604 1.15187
rclavicle -3.53837e-014 -3.33958e-014
rhumerus 43.1238 -33.9556 -45.5361
rradius 106.086
rwrist 124.144
rhand -34.1268 -8.83931
rfingers 7.12502
rthumb -7.30201 -38.6933
lclavicle -3.53837e-014 -3.33958e-014
lhumerus -57.5373 -20.7381 95.2434
lradius 43.3503
lwrist 25.9698
lhand -11.8833 27.027
lfingers 7.12502
lthumb 14.1694 56.5238
rfemur -14.5491 24.4212 8.74059
rtibia 5.46658e-014
rfoot -0.333348 4.88406
rtoes 7.61776
lfemur -10.8236 14.9473 -24.3066
ltibia 15.2871
lfoot -18.6892 19.2269
ltoes -21.3918
